# xmcd
#
# Track frame offsets:
#	150
#	12325
#	25063
#	34481
#	51919
#	71077
#	86502
#	109424
#	120261
#	134873
#	150452
#
# Disc length: 2169 seconds
#
# Revision: 1
# Processed by: cddbd v1.5.2PL0 Copyright (c) Steve Scherf et al.
# Submitted via: audiograbber 1.83.01
#
DISCID=9508770b
DTITLE=The Suggins Brothers - Live At Everett's Music Barn
DYEAR=2006
DGENRE=Bluegrass
TTITLE0=Walkin' The Dog
TTITLE1=Ramblin' Fever
TTITLE2=Dooley
TTITLE3=So Afraid Of Losing You
TTITLE4=Don't Give Up On Me
TTITLE5=I Cried Again
TTITLE6=I'll Break Out Again Tonight
TTITLE7=Girl I Love Don't Pay Me No Mind
TTITLE8=You'll Forget
TTITLE9=The Way I Am
TTITLE10=Rawhide
EXTD=
EXTT0=
EXTT1=
EXTT2=
EXTT3=
EXTT4=
EXTT5=
EXTT6=
EXTT7=
EXTT8=
EXTT9=
EXTT10=
PLAYORDER=
